<svg width="29" height="22" viewBox="0 0 29 22" fill="none" xmlns="http://www.w3.org/2000/svg">
<path d="M23.9434 1.95999C22.148 1.13619 20.2227 0.529253 18.2097 0.181634C18.1731 0.174925 18.1364 0.191691 18.1176 0.225224C17.87 0.665614 17.5957 1.24014 17.4036 1.69171C15.2385 1.36757 13.0845 1.36757 10.9638 1.69171C10.7717 1.2301 10.4875 0.665614 10.2387 0.225224C10.2199 0.19281 10.1832 0.176044 10.1466 0.181634C8.13469 0.528142 6.20941 1.13508 4.41291 1.95999C4.39736 1.9667 4.38403 1.97788 4.37518 1.99241C0.723332 7.44819 -0.277062 12.7699 0.213698 18.0256C0.215918 18.0513 0.230352 18.0759 0.250338 18.0915C2.65972 19.8609 4.99363 20.9351 7.28419 21.6471C7.32085 21.6583 7.35969 21.6449 7.38302 21.6147C7.92485 20.8748 8.40785 20.0946 8.82197 19.2741C8.84641 19.2261 8.82308 19.169 8.77313 19.15C8.00702 18.8594 7.27752 18.5051 6.5758 18.1027C6.5203 18.0703 6.51585 17.9909 6.56691 17.9529C6.71458 17.8422 6.86229 17.7271 7.00329 17.6109C7.0288 17.5896 7.06435 17.5852 7.09435 17.5986C11.7044 19.7033 16.6952 19.7033 21.2508 17.5986C21.2808 17.584 21.3164 17.5885 21.343 17.6098C21.4841 17.726 21.6317 17.8422 21.7805 17.9529C21.8316 17.9909 21.8282 18.0703 21.7727 18.1027C21.071 18.5129 20.3415 18.8594 19.5743 19.1489C19.5243 19.1679 19.5021 19.2261 19.5266 19.2741C19.9496 20.0934 20.4326 20.8736 20.9644 21.6136C20.9866 21.6449 21.0266 21.6583 21.0632 21.6471C23.3649 20.9351 25.6988 19.8609 28.1082 18.0915C28.1293 18.0759 28.1426 18.0524 28.1448 18.0267C28.7322 11.9505 27.1611 6.67248 23.98 1.99352C23.9722 1.97788 23.9589 1.9667 23.9434 1.95999ZM9.5104 14.8254C8.12247 14.8254 6.97885 13.5512 6.97885 11.9863C6.97885 10.4214 8.10029 9.14721 9.5104 9.14721C10.9316 9.14721 12.0641 10.4326 12.0419 11.9863C12.0419 13.5512 10.9205 14.8254 9.5104 14.8254ZM18.8703 14.8254C17.4825 14.8254 16.3388 13.5512 16.3388 11.9863C16.3388 10.4214 17.4602 9.14721 18.8703 9.14721C20.2916 9.14721 21.4241 10.4326 21.4019 11.9863C21.4019 13.5512 20.2916 14.8254 18.8703 14.8254Z" fill="white"/>
</svg>
