<svg width="29" height="29" viewBox="0 0 29 29" fill="none" xmlns="http://www.w3.org/2000/svg">
<g clip-path="url(#clip0_178_113)">
<path fill-rule="evenodd" clip-rule="evenodd" d="M14.161 0.831177C6.36625 0.831177 0.0649414 7.17894 0.0649414 15.032C0.0649414 21.3093 4.1024 26.623 9.70344 28.5037C10.4037 28.645 10.6602 28.1981 10.6602 27.8221C10.6602 27.4929 10.6371 26.3645 10.6371 25.1887C6.71595 26.0352 5.8994 23.4958 5.8994 23.4958C5.26924 21.85 4.33554 21.4271 4.33554 21.4271C3.05214 20.5571 4.42903 20.5571 4.42903 20.5571C5.85265 20.6512 6.59967 22.0148 6.59967 22.0148C7.8597 24.1777 9.89012 23.5665 10.707 23.1903C10.8235 22.2733 11.1972 21.6386 11.5939 21.286C8.46649 20.9567 5.17604 19.7342 5.17604 14.2795C5.17604 12.7277 5.7358 11.4582 6.62275 10.4708C6.48281 10.1182 5.99259 8.66027 6.76298 6.70891C6.76298 6.70891 7.95319 6.33266 10.6368 8.16659C11.7858 7.85574 12.9707 7.69761 14.161 7.69628C15.3512 7.69628 16.5645 7.86103 17.6849 8.16659C20.3688 6.33266 21.559 6.70891 21.559 6.70891C22.3294 8.66027 21.8389 10.1182 21.699 10.4708C22.6093 11.4582 23.146 12.7277 23.146 14.2795C23.146 19.7342 19.8555 20.9331 16.7047 21.286C17.2183 21.7326 17.6615 22.5789 17.6615 23.9191C17.6615 25.8235 17.6384 27.3518 17.6384 27.8218C17.6384 28.1981 17.8952 28.645 18.5952 28.5039C24.1962 26.6227 28.2337 21.3093 28.2337 15.032C28.2568 7.17894 21.9324 0.831177 14.161 0.831177Z" fill="white"/>
</g>
<defs>
<clipPath id="clip0_178_113">
<rect width="28.1688" height="28.1688" fill="white" transform="translate(0.0649414 0.831177)"/>
</clipPath>
</defs>
</svg>
