<svg width="29" height="29" viewBox="0 0 29 29" fill="none" xmlns="http://www.w3.org/2000/svg">
<g clip-path="url(#clip0_178_112)">
<path d="M26.1161 0.831177H2.11212C0.962262 0.831177 0.0324707 1.73896 0.0324707 2.86131V26.9644C0.0324707 28.0867 0.962262 29 2.11212 29H26.1161C27.266 29 28.2013 28.0867 28.2013 26.9699V2.86131C28.2013 1.73896 27.266 0.831177 26.1161 0.831177ZM8.38959 24.8352H4.20828V11.389H8.38959V24.8352ZM6.29893 9.55691C4.95651 9.55691 3.87267 8.47307 3.87267 7.13615C3.87267 5.79923 4.95651 4.71539 6.29893 4.71539C7.63585 4.71539 8.71969 5.79923 8.71969 7.13615C8.71969 8.46757 7.63585 9.55691 6.29893 9.55691ZM24.0365 24.8352H19.8607V18.2991C19.8607 16.7422 19.8332 14.734 17.6875 14.734C15.5143 14.734 15.1842 16.4341 15.1842 18.1891V24.8352H11.0139V11.389H15.0192V13.2266H15.0742C15.6299 12.1702 16.9943 11.0534 19.0244 11.0534C23.2552 11.0534 24.0365 13.8373 24.0365 17.4574V24.8352Z" fill="white"/>
</g>
<defs>
<clipPath id="clip0_178_112">
<rect width="28.1688" height="28.1688" fill="white" transform="translate(0.0324707 0.831177)"/>
</clipPath>
</defs>
</svg>
