<svg width="10" height="12" viewBox="0 0 10 12" fill="none" xmlns="http://www.w3.org/2000/svg">
<g opacity="0.8">
<path fill-rule="evenodd" clip-rule="evenodd" d="M1.59584 3.21117C1.30206 3.21117 1.0639 3.44933 1.0639 3.74311V9.5945C1.0639 9.88828 1.30206 10.1264 1.59584 10.1264H7.44723C7.74101 10.1264 7.97917 9.88828 7.97917 9.5945V6.93478C7.97917 6.64099 8.21733 6.40283 8.51111 6.40283C8.8049 6.40283 9.04306 6.64099 9.04306 6.93478V9.5945C9.04306 10.4758 8.32858 11.1903 7.44723 11.1903H1.59584C0.714486 11.1903 7.62939e-06 10.4758 7.62939e-06 9.5945V3.74311C7.62939e-06 2.86176 0.714486 2.14728 1.59584 2.14728H4.25556C4.54935 2.14728 4.78751 2.38544 4.78751 2.67922C4.78751 2.97301 4.54935 3.21117 4.25556 3.21117H1.59584Z" fill="#EFF6FF"/>
<path fill-rule="evenodd" clip-rule="evenodd" d="M5.92699 1.34158C5.92699 1.04779 6.16515 0.809632 6.45893 0.809632L9.46806 0.809631C9.60914 0.809631 9.74445 0.865676 9.84421 0.965434C9.94396 1.06519 10 1.2005 10 1.34158V4.35071C10 4.64449 9.76185 4.88265 9.46806 4.88265C9.17428 4.88265 8.93612 4.64449 8.93612 4.35071L8.93612 2.6258L5.33051 6.23141C5.12277 6.43915 4.78596 6.43915 4.57823 6.23141C4.37049 6.02368 4.37049 5.68687 4.57823 5.47913L8.18384 1.87352L6.45893 1.87352C6.16515 1.87352 5.92699 1.63536 5.92699 1.34158Z" fill="#EFF6FF"/>
</g>
</svg>
