<svg width="24" height="24" viewBox="0 0 24 24" fill="none" xmlns="http://www.w3.org/2000/svg">
<path fill-rule="evenodd" clip-rule="evenodd" d="M6.68469 5.22137C5.58012 5.22137 4.68469 6.11681 4.68469 7.22137V17.2214C4.68469 18.3259 5.58012 19.2214 6.68469 19.2214H10.6847C11.7893 19.2214 12.6847 18.3259 12.6847 17.2214V16.2214C12.6847 15.6691 13.1324 15.2214 13.6847 15.2214C14.237 15.2214 14.6847 15.6691 14.6847 16.2214V17.2214C14.6847 19.4305 12.8938 21.2214 10.6847 21.2214H6.68469C4.47555 21.2214 2.68469 19.4305 2.68469 17.2214V7.22137C2.68469 5.01224 4.47555 3.22137 6.68469 3.22137H10.6847C12.8938 3.22137 14.6847 5.01224 14.6847 7.22137V8.22137C14.6847 8.77366 14.237 9.22137 13.6847 9.22137C13.1324 9.22137 12.6847 8.77366 12.6847 8.22137V7.22137C12.6847 6.11681 11.7893 5.22137 10.6847 5.22137H6.68469ZM16.9776 7.51427C17.3681 7.12374 18.0013 7.12374 18.3918 7.51427L22.3918 11.5143C22.7823 11.9048 22.7823 12.538 22.3918 12.9285L18.3918 16.9285C18.0013 17.319 17.3681 17.319 16.9776 16.9285C16.5871 16.538 16.5871 15.9048 16.9776 15.5143L19.2705 13.2214L7.68469 13.2214C7.13241 13.2214 6.68469 12.7737 6.68469 12.2214C6.68469 11.6691 7.13241 11.2214 7.68469 11.2214L19.2705 11.2214L16.9776 8.92848C16.5871 8.53796 16.5871 7.90479 16.9776 7.51427Z" fill="#93DEFF"/>
</svg>
