<svg width="433" height="432" viewBox="0 0 433 432" fill="none" xmlns="http://www.w3.org/2000/svg">
<g clip-path="url(#clip0_177_215)">
<path d="M432.13 0H0.601624V431.528H432.13V0Z" fill="#0D0D0D"/>
<path fill-rule="evenodd" clip-rule="evenodd" d="M119.641 0V14.8799H134.521V29.7599H119.641V74.3997H134.521V89.2797H119.641V104.16H134.521V89.2797H149.401V104.16H164.281V89.2797H179.161V104.16H194.041V74.3997H179.161V59.5198H149.401V14.8799H164.281V0H119.641ZM179.161 0V29.7599H164.281V44.6398H179.161V29.7599H194.041V59.5198H208.921V74.3997H238.681V119.04H253.561V133.92H268.441V148.799H298.201V193.439H283.321V163.679H268.441V193.439H253.561V148.799H238.681V163.679H223.801V208.319H238.681V193.439H253.561V208.319H268.441V238.079H238.681V252.959H268.441V267.839H253.561V282.719H238.681V267.839H208.921V252.959H223.801V223.199H194.041V193.439H164.281V208.319H134.521V193.439H149.401V178.559H164.281V163.679H179.161V178.559H208.921V148.799H223.801V119.04H179.161V148.799H164.281V119.04H119.641V133.92H134.521V148.799H164.281V163.679H149.401V178.559H134.521V163.679H104.761V148.799H89.8813V133.92H104.761V119.04H89.8813V133.92H60.1214V119.04H0.601624V133.92H60.1214V148.799H45.2415V163.679H30.3615V148.799H15.4816V163.679H0.601624V193.439H30.3615V223.199H60.1214V208.319H89.8813V223.199H75.0014V267.839H89.8813V282.719H75.0014V297.599H60.1214V312.479H75.0014V297.599H89.8813V312.479H104.761V297.599H149.401V282.719H164.281V267.839H179.161V327.359H164.281V312.479H149.401V371.999H119.641V431.518H223.801V416.638H134.521V401.759H164.281V386.879H149.401V371.999H164.281V342.239H179.161V386.879H194.041V401.759H238.681V386.879H223.801V371.999H238.681V357.119H208.921V342.239H179.161V327.359H194.041V282.719H208.921V312.479H223.801V282.719H238.681V297.599H283.321V312.479H268.441V327.359H253.561V342.239H283.321V312.479H298.201V386.879H313.08V371.999H327.96V401.759H372.6V431.518H417.24V416.638H432.12V386.879H417.24V371.999H432.12V357.119H402.36V371.999H387.48V357.119H372.6V327.359H387.48V312.479H402.36V342.239H417.24V312.479H432.12V282.719H417.24V238.079H432.12V208.319H417.24V193.439H372.6V178.559H417.24V133.92H432.12V119.04H417.24V133.92H402.36V119.04H357.72V133.92H372.6V148.799H357.72V163.679H342.84V178.559H357.72V193.439H342.84V208.319H327.96V238.079H342.84V252.959H357.72V267.839H342.84V282.719H327.96V252.959H313.08V223.199H298.201V208.319H313.08V178.559H327.96V163.679H313.08V148.799H327.96V119.04H313.08V59.5198H298.201V104.16H283.321V74.3997H268.441V44.6398H313.08V0H298.201V29.7599H268.441V44.6398H253.561V0H238.681V29.7599H223.801V59.5198H208.921V14.8799H194.041V0H179.161ZM238.681 44.6398V59.5198H253.561V44.6398H238.681ZM134.521 59.5198V74.3997H149.401V89.2797H164.281V74.3997H149.401V59.5198H134.521ZM208.921 89.2797V104.16H223.801V89.2797H208.921ZM253.561 89.2797V104.16H268.441V119.04H283.321V104.16H268.441V89.2797H253.561ZM194.041 133.92V148.799H179.161V163.679H194.041V148.799H208.921V133.92H194.041ZM298.201 133.92V148.799H313.08V133.92H298.201ZM387.48 133.92V148.799H372.6V163.679H357.72V178.559H372.6V163.679H402.36V133.92H387.48ZM60.1214 148.799V163.679H75.0014V193.439H89.8813V208.319H104.761V223.199H89.8813V238.079H104.761V223.199H134.521V238.079H119.641V252.959H89.8813V267.839H104.761V282.719H89.8813V297.599H104.761V282.719H119.641V267.839H134.521V252.959H149.401V267.839H164.281V252.959H149.401V238.079H164.281V223.199H179.161V208.319H164.281V223.199H134.521V208.319H104.761V193.439H89.8813V178.559H104.761V163.679H75.0014V148.799H60.1214ZM15.4816 163.679V178.559H30.3615V163.679H15.4816ZM119.641 178.559V193.439H134.521V178.559H119.641ZM268.441 193.439V208.319H283.321V193.439H268.441ZM357.72 193.439V208.319H372.6V193.439H357.72ZM0.601624 223.199V238.079H15.4816V223.199H0.601624ZM342.84 223.199V238.079H357.72V223.199H342.84ZM387.48 223.199V238.079H402.36V223.199H387.48ZM30.3615 238.079V252.959H60.1214V238.079H30.3615ZM179.161 238.079V267.839H194.041V252.959H208.921V238.079H179.161ZM283.321 238.079V252.959H298.201V238.079H283.321ZM372.6 252.959V267.839H357.72V297.599H387.48V282.719H372.6V267.839H402.36V252.959H372.6ZM0.601624 267.839V282.719H15.4816V267.839H0.601624ZM45.2415 267.839V282.719H60.1214V267.839H45.2415ZM283.321 267.839V297.599H313.08V267.839H283.321ZM15.4816 297.599V312.479H30.3615V297.599H15.4816ZM402.36 297.599V312.479H417.24V297.599H402.36ZM119.641 312.479V327.359H134.521V312.479H119.641ZM313.08 312.479V357.119H357.72V312.479H313.08ZM327.96 327.359V342.239H342.84V327.359H327.96ZM194.041 371.999V386.879H208.921V371.999H194.041ZM253.561 371.999V401.759H268.441V386.879H283.321V371.999H253.561ZM342.84 371.999V386.879H372.6V401.759H387.48V416.638H417.24V386.879H402.36V401.759H387.48V386.879H372.6V371.999H342.84ZM283.321 401.759V416.638H298.201V431.518H313.08V401.759H283.321ZM238.681 416.638V431.518H268.441V416.638H238.681ZM327.96 416.638V431.518H342.84V416.638H327.96ZM0.601624 0H104.761V104.16H0.601624V0ZM15.4816 14.8799V89.2797H89.8813V14.8799H15.4816ZM327.96 0H432.12V104.16H327.96V0ZM342.84 14.8799V89.2797H417.24V14.8799H342.84ZM0.601624 327.359H104.761V431.518H0.601624V327.359ZM15.4816 342.239V416.638H89.8813V342.239H15.4816Z" fill="#E0E0E0"/>
<path d="M53 29L57.616 48.384L77 53L57.616 57.616L53 77L48.384 57.616L29 53L48.384 48.384L53 29Z" fill="white"/>
<path d="M382 29L386.616 48.384L406 53L386.616 57.616L382 77L377.384 57.616L358 53L377.384 48.384L382 29Z" fill="white"/>
<path d="M53 356L57.616 375.384L77 380L57.616 384.616L53 404L48.384 384.616L29 380L48.384 375.384L53 356Z" fill="white"/>
</g>
<defs>
<clipPath id="clip0_177_215">
<rect width="431.528" height="431.528" fill="white" transform="translate(0.601624)"/>
</clipPath>
</defs>
</svg>
