<?xml version="1.0" encoding="UTF-8"?>
<svg xmlns="http://www.w3.org/2000/svg" xmlns:xlink="http://www.w3.org/1999/xlink" width="32px" height="32px" viewBox="0 0 32 32" version="1.1">
<g id="surface1">
<path style=" stroke:none;fill-rule:nonzero;fill:rgb(100%,100%,100%);fill-opacity:1;" d="M 18.484375 22.039062 L 4.273438 25.847656 C 3.925781 25.941406 3.800781 26.363281 4.039062 26.628906 C 4.246094 26.863281 4.460938 27.089844 4.6875 27.3125 C 7.859375 30.488281 12.039062 32.050781 16.199219 32 C 16.414062 31.996094 16.601562 31.851562 16.65625 31.644531 L 19.070312 22.625 C 19.167969 22.269531 18.84375 21.941406 18.484375 22.039062 Z M 18.484375 22.039062 "/>
<path style=" stroke:none;fill-rule:nonzero;fill:rgb(100%,100%,100%);fill-opacity:1;" d="M 12.011719 21.171875 L 1.605469 10.765625 C 1.355469 10.515625 0.925781 10.613281 0.816406 10.949219 C -0.628906 15.300781 -0.15625 20.148438 2.238281 24.171875 C 2.347656 24.355469 2.570312 24.445312 2.777344 24.390625 L 11.796875 21.972656 C 12.15625 21.878906 12.273438 21.433594 12.011719 21.171875 Z M 12.011719 21.171875 "/>
<path style=" stroke:none;fill-rule:nonzero;fill:rgb(100%,100%,100%);fill-opacity:1;" d="M 22.472656 16.867188 L 18.664062 31.082031 C 18.570312 31.425781 18.875 31.746094 19.226562 31.671875 C 22.1875 31.066406 25.015625 29.613281 27.3125 27.3125 C 28.375 26.253906 29.257812 25.078125 29.957031 23.832031 C 30.0625 23.644531 30.03125 23.410156 29.878906 23.257812 L 23.273438 16.652344 C 23.011719 16.390625 22.566406 16.511719 22.472656 16.867188 Z M 22.472656 16.867188 "/>
<path style=" stroke:none;fill-rule:nonzero;fill:rgb(100%,100%,100%);fill-opacity:1;" d="M 9.527344 15.132812 L 13.335938 0.917969 C 13.429688 0.574219 13.125 0.253906 12.773438 0.328125 C 9.8125 0.933594 6.984375 2.386719 4.6875 4.6875 C 3.625 5.746094 2.742188 6.921875 2.042969 8.167969 C 1.9375 8.355469 1.96875 8.589844 2.121094 8.742188 L 8.726562 15.347656 C 8.988281 15.609375 9.433594 15.488281 9.527344 15.132812 Z M 9.527344 15.132812 "/>
<path style=" stroke:none;fill-rule:nonzero;fill:rgb(100%,100%,100%);fill-opacity:1;" d="M 19.988281 10.828125 L 30.394531 21.234375 C 30.644531 21.484375 31.074219 21.386719 31.183594 21.050781 C 32.644531 16.65625 32.144531 11.753906 29.6875 7.707031 C 29.617188 7.59375 29.484375 7.539062 29.355469 7.574219 L 20.203125 10.027344 C 19.84375 10.121094 19.726562 10.566406 19.988281 10.828125 Z M 19.988281 10.828125 "/>
<path style=" stroke:none;fill-rule:nonzero;fill:rgb(100%,100%,100%);fill-opacity:1;" d="M 13.515625 9.960938 L 28.003906 6.078125 C 28.21875 6.023438 28.300781 5.761719 28.15625 5.597656 C 27.890625 5.285156 27.609375 4.980469 27.3125 4.6875 C 24.140625 1.511719 19.960938 -0.0507812 15.800781 0 C 15.585938 0.00390625 15.398438 0.148438 15.34375 0.355469 L 12.929688 9.375 C 12.832031 9.730469 13.15625 10.058594 13.515625 9.960938 Z M 13.515625 9.960938 "/>
</g>
</svg>
