<?xml version="1.0" encoding="UTF-8"?>
<svg id="Layer_2" data-name="Layer 2" xmlns="http://www.w3.org/2000/svg" viewBox="0 0 534.98 534.96" width="24px" height="24px">
  <defs>
    <style>
      .cls-1 {
        fill: #fff;
      }
    </style>
  </defs>
  <g id="Layer_1-2" data-name="Layer 1">
    <g>
      <path class="cls-1" d="m309.04,368.43l-237.62,63.67c-5.77,1.55-7.85,8.61-3.88,13.08,3.47,3.9,7.06,7.72,10.8,11.45,53.07,53.07,122.9,79.17,192.46,78.31,3.59-.04,6.72-2.47,7.65-5.94l40.4-150.77c1.59-5.95-3.85-11.39-9.8-9.8Z"/>
      <path class="cls-1" d="m200.84,353.94L26.86,179.96c-4.19-4.19-11.37-2.54-13.24,3.09-24.13,72.75-16.2,153.79,23.83,221.07,1.83,3.08,5.49,4.56,8.95,3.63l150.85-40.42c5.95-1.59,7.94-9.03,3.59-13.38Z"/>
      <path class="cls-1" d="m375.69,281.97l-63.67,237.63c-1.54,5.76,3.53,11.1,9.38,9.9,49.56-10.15,96.8-34.43,135.24-72.87,17.75-17.75,32.47-37.37,44.19-58.23,1.76-3.13,1.22-7.05-1.32-9.59l-110.43-110.43c-4.35-4.35-11.79-2.36-13.38,3.59Z"/>
      <path class="cls-1" d="m159.28,252.99L222.96,15.36c1.54-5.76-3.53-11.1-9.38-9.9-49.56,10.15-96.8,34.43-135.24,72.87-17.75,17.75-32.47,37.37-44.19,58.23-1.76,3.13-1.22,7.05,1.32,9.59l110.43,110.43c4.35,4.35,11.79,2.36,13.38-3.59Z"/>
      <path class="cls-1" d="m334.14,181.02l173.98,173.98c4.19,4.19,11.37,2.54,13.24-3.09,24.37-73.47,16.03-155.41-25.04-223.08-1.15-1.89-3.42-2.78-5.55-2.21l-153.04,41.01c-5.95,1.59-7.94,9.03-3.59,13.38Z"/>
      <path class="cls-1" d="m225.93,166.53l242.27-64.92c3.54-.95,4.91-5.28,2.53-8.06-4.46-5.21-9.16-10.29-14.09-15.22C403.57,25.26,333.74-.84,264.18.02c-3.59.04-6.72,2.47-7.65,5.94l-40.4,150.77c-1.59,5.95,3.85,11.39,9.8,9.8Z"/>
    </g>
  </g>
</svg>