<svg width="2154" height="424" viewBox="0 0 2154 424" fill="none" xmlns="http://www.w3.org/2000/svg">
<path d="M191.214 274.461L44.1896 313.856C40.6195 314.815 39.3325 319.184 41.7889 321.949C43.9359 324.363 46.1572 326.726 48.4712 329.034C81.3076 361.87 124.514 378.019 167.553 377.487C169.775 377.462 171.711 375.959 172.287 373.812L197.284 280.525C198.267 276.844 194.901 273.478 191.22 274.461H191.214Z" fill="white"/>
<path d="M124.266 265.496L16.6186 157.848C14.0261 155.256 9.58359 156.277 8.42656 159.76C-6.50355 204.773 -1.59697 254.916 23.171 296.544C24.3033 298.45 26.5679 299.366 28.7087 298.79L122.045 273.781C125.727 272.797 126.958 268.194 124.266 265.502V265.496Z" fill="white"/>
<path d="M232.452 220.966L193.057 367.996C192.104 371.56 195.241 374.864 198.861 374.121C229.526 367.841 258.755 352.818 282.539 329.034C293.521 318.052 302.629 305.912 309.881 293.005C310.97 291.068 310.636 288.643 309.064 287.071L240.737 218.744C238.046 216.053 233.442 217.284 232.458 220.966H232.452Z" fill="white"/>
<path d="M98.5517 203.035L137.953 56.0042C138.906 52.4403 135.769 49.1363 132.149 49.8787C101.485 56.1589 72.2554 71.1818 48.4712 94.9661C37.4886 105.949 28.3808 118.088 21.1292 130.995C20.0402 132.932 20.3743 135.357 21.9459 136.929L90.273 205.256C92.9645 207.947 97.5679 206.716 98.5517 203.035Z" fill="white"/>
<path d="M206.744 158.504L314.392 266.152C316.984 268.744 321.427 267.723 322.584 264.24C337.662 218.781 332.502 168.082 307.091 126.212C306.379 125.043 304.975 124.492 303.657 124.845L208.965 150.219C205.284 151.203 204.053 155.806 206.744 158.498V158.504Z" fill="white"/>
<path d="M139.79 149.539L289.692 109.37C291.882 108.782 292.73 106.103 291.257 104.383C288.497 101.16 285.589 98.0164 282.539 94.966C249.703 62.1296 206.496 45.9806 163.457 46.5127C161.236 46.5375 159.299 48.041 158.724 50.188L133.727 143.475C132.743 147.156 136.109 150.522 139.79 149.539Z" fill="white"/>
<path d="M524.956 336.101C477.109 336.101 448.401 309.102 445.667 274.925L479.501 272.875C482.919 293.38 497.957 305.684 524.956 305.684C549.905 305.684 563.917 298.849 563.917 284.153C563.917 269.799 556.399 263.647 518.804 256.812C466.514 247.242 450.109 231.179 450.109 201.787C450.109 170.003 475.058 146.08 519.83 146.08C566.31 146.08 589.55 173.763 594.676 205.205L560.842 207.256C557.082 189.142 543.07 176.497 519.83 176.497C495.223 176.497 483.602 187.433 483.602 201.446C483.602 218.534 495.564 224.002 528.374 229.812C582.031 239.382 597.41 253.736 597.41 284.153C597.41 316.621 566.993 336.101 524.956 336.101ZM738.768 332C702.199 332 684.769 315.253 684.769 279.71V178.547H626.669V150.181H684.769V103.359H717.237V150.181H789.349V178.547H717.237V278.685C717.237 295.773 725.097 303.633 741.16 303.633H789.349V332H738.768ZM880.125 336.101C846.291 336.101 819.291 316.279 819.291 285.862C819.291 255.103 838.43 239.04 876.024 231.521L935.491 219.217C935.491 190.509 922.162 176.497 897.897 176.497C873.974 176.497 861.67 187.091 856.885 206.572L822.709 204.18C829.544 169.32 856.202 146.08 897.897 146.08C942.668 146.08 967.959 174.104 967.959 220.584V292.355C967.959 300.899 971.377 303.633 979.237 303.633H990.174V332C987.44 332.342 980.604 333.025 974.453 333.025C953.947 333.025 941.643 324.481 937.884 306.026C928.314 323.798 906.099 336.101 880.125 336.101ZM883.885 307.735C917.378 307.735 935.491 288.938 935.491 260.571V245.875L883.201 256.47C861.328 260.571 853.468 269.115 853.468 283.128C853.468 298.849 864.404 307.735 883.885 307.735ZM1021.82 332V89.3464H1054.29V242.799L1138.02 150.181H1180.06L1108.63 227.42L1183.48 332H1143.83L1086.76 249.634L1054.29 284.153V332H1021.82ZM1288.95 336.101C1237.69 336.101 1205.22 298.849 1205.22 241.09C1205.22 183.332 1237.69 146.08 1287.93 146.08C1335.09 146.08 1369.61 179.914 1369.61 241.774V250.318H1239.4C1241.79 287.229 1260.24 305.684 1288.95 305.684C1311.17 305.684 1325.52 294.406 1331.67 276.634L1366.53 279.368C1356.28 312.861 1328.25 336.101 1288.95 336.101ZM1334.06 224.002C1330.99 191.876 1312.88 176.497 1287.93 176.497C1261.95 176.497 1244.52 192.901 1239.74 224.002H1334.06ZM1473.03 140.27C1473.03 125.915 1464.83 117.713 1450.47 117.713H1408.09V89.3464H1452.18C1487.38 89.3464 1505.84 107.46 1505.84 142.662V303.633H1568.04V332H1401.26V303.633H1473.03V140.27ZM1671.46 336.101C1620.2 336.101 1587.73 298.849 1587.73 241.09C1587.73 183.332 1620.2 146.08 1670.44 146.08C1717.6 146.08 1752.12 179.914 1752.12 241.774V250.318H1621.91C1624.3 287.229 1642.75 305.684 1671.46 305.684C1693.68 305.684 1708.03 294.406 1714.18 276.634L1749.04 279.368C1738.79 312.861 1710.77 336.101 1671.46 336.101ZM1716.58 224.002C1713.5 191.876 1695.39 176.497 1670.44 176.497C1644.46 176.497 1627.03 192.901 1622.25 224.002H1716.58ZM1789.92 332V150.181H1819.65L1820.68 182.99C1829.91 157.7 1851.1 146.08 1875.36 146.08C1916.03 146.08 1935.51 175.813 1935.51 214.774V332H1902.7V224.002C1902.7 191.534 1892.45 174.446 1867.16 174.446C1841.19 174.446 1822.73 191.876 1822.73 224.686V332H1789.92ZM2055 336.101C2007.15 336.101 1978.44 309.102 1975.71 274.925L2009.54 272.875C2012.96 293.38 2028 305.684 2055 305.684C2079.95 305.684 2093.96 298.849 2093.96 284.153C2093.96 269.799 2086.44 263.647 2048.85 256.812C1996.56 247.242 1980.15 231.179 1980.15 201.787C1980.15 170.003 2005.1 146.08 2049.87 146.08C2096.35 146.08 2119.59 173.763 2124.72 205.205L2090.88 207.256C2087.12 189.142 2073.11 176.497 2049.87 176.497C2025.26 176.497 2013.64 187.433 2013.64 201.446C2013.64 218.534 2025.61 224.002 2058.42 229.812C2112.07 239.382 2127.45 253.736 2127.45 284.153C2127.45 316.621 2097.04 336.101 2055 336.101Z" fill="white"/>
</svg>
